<svg width="58" height="58" viewBox="0 0 58 58" fill="none" xmlns="http://www.w3.org/2000/svg">
<path d="M6.33186 0.836292C6.53186 0.835777 6.73187 0.835068 6.93187 0.834182C7.47907 0.832324 8.02624 0.833236 8.57344 0.834622C9.1645 0.835634 9.75555 0.834072 10.3466 0.832845C11.5036 0.830861 12.6605 0.831288 13.8174 0.832583C14.7578 0.833592 15.6982 0.833727 16.6386 0.833242C16.7726 0.833173 16.9065 0.833105 17.0445 0.833034C17.3166 0.832892 17.5886 0.832747 17.8607 0.8326C20.4111 0.831328 22.9614 0.83279 25.5118 0.83519C27.6993 0.837185 29.8869 0.836838 32.0744 0.83478C34.6158 0.83239 37.1571 0.83145 39.6984 0.832821C39.9695 0.832963 40.2406 0.833103 40.5116 0.833242C40.7117 0.833345 40.7117 0.833345 40.9158 0.83345C41.8549 0.833836 42.794 0.833186 43.7331 0.832135C44.8778 0.830881 46.0225 0.831223 47.1672 0.833599C47.751 0.834772 48.3349 0.835235 48.9187 0.833756C49.4536 0.832422 49.9884 0.833162 50.5232 0.835532C50.7163 0.836029 50.9094 0.83578 51.1025 0.834695C52.6423 0.826703 53.8747 1.01858 55.0293 2.12082C56.0524 3.19248 56.3251 4.33919 56.3139 5.78933C56.3149 5.99882 56.3149 5.99882 56.316 6.21254C56.3178 6.59685 56.3169 6.9811 56.3155 7.36541C56.3145 7.78116 56.3161 8.19691 56.3173 8.61266C56.3193 9.42579 56.3189 10.2389 56.3176 11.052C56.3166 11.7132 56.3164 12.3743 56.3169 13.0355C56.317 13.1297 56.3171 13.224 56.3171 13.3211C56.3173 13.5127 56.3174 13.7042 56.3176 13.8958C56.3188 15.6898 56.3174 17.4839 56.315 19.2779C56.313 20.8156 56.3133 22.3534 56.3154 23.8911C56.3178 25.6789 56.3187 27.4668 56.3173 29.2546C56.3172 29.4454 56.3171 29.6362 56.3169 29.8271C56.3168 29.9679 56.3168 29.9679 56.3167 30.1115C56.3163 30.7715 56.317 31.4315 56.318 32.0914C56.3193 32.8963 56.3189 33.7011 56.3166 34.5059C56.3154 34.9162 56.3149 35.3264 56.3164 35.7366C56.318 36.1822 56.3161 36.6277 56.3139 37.0732C56.3154 37.2659 56.3154 37.2659 56.3169 37.4626C56.3044 38.76 55.9307 39.7975 55.0293 40.7417C53.6651 42.0441 52.2123 42.0299 50.4319 41.9975C50.2171 41.9952 50.0022 41.9932 49.7873 41.9914C49.265 41.9865 48.7427 41.9788 48.2205 41.9696C48.2228 42.0619 48.2251 42.1542 48.2275 42.2494C48.2368 42.6677 48.2426 43.086 48.2484 43.5043C48.2521 43.6497 48.2558 43.795 48.2597 43.9447C48.2611 44.0843 48.2626 44.2239 48.2641 44.3677C48.2664 44.4963 48.2687 44.6249 48.2711 44.7574C48.2079 45.1784 48.1076 45.2835 47.774 45.5414C47.4374 45.585 47.4374 45.585 47.0763 45.5693C46.956 45.5653 46.8358 45.5613 46.7118 45.5571C46.6203 45.5519 46.5288 45.5468 46.4345 45.5414C46.4449 46.4133 46.4568 47.2851 46.4699 48.1569C46.4743 48.4532 46.4781 48.7495 46.4816 49.0458C46.4867 49.4728 46.4932 49.8998 46.4999 50.3267C46.5012 50.4583 46.5025 50.5898 46.5038 50.7254C46.5231 51.8145 46.5589 52.815 47.3741 53.6235C48.1123 54.2763 48.8881 54.3692 49.8452 54.3824C49.9882 54.3846 50.1312 54.3869 50.2785 54.3892C50.4328 54.3911 50.5872 54.3929 50.7415 54.3948C50.9007 54.3971 51.0599 54.3995 51.2191 54.4018C51.6364 54.408 52.0537 54.4135 52.471 54.4189C52.8975 54.4245 53.324 54.4307 53.7505 54.4369C54.586 54.4489 55.4216 54.4601 56.2572 54.4711C56.2572 55.0605 56.2572 55.6498 56.2572 56.2571C55.216 56.2672 54.1748 56.2754 53.1336 56.2802C52.6499 56.2825 52.1664 56.2856 51.6828 56.2907C51.2153 56.2956 50.7478 56.2983 50.2802 56.2994C50.1027 56.3002 49.9252 56.3018 49.7477 56.3043C48.2267 56.3242 47.0149 56.1161 45.8764 55.0292C44.7667 53.8668 44.5809 52.6514 44.605 51.0898C44.6058 50.9289 44.6064 50.768 44.6069 50.607C44.6086 50.1877 44.6129 49.7685 44.6179 49.3492C44.6225 48.9196 44.6245 48.4901 44.6268 48.0605C44.6315 47.2208 44.6391 46.3811 44.6486 45.5414C44.5571 45.5466 44.4656 45.5518 44.3713 45.5571C44.251 45.5612 44.1307 45.5652 44.0068 45.5693C43.8876 45.5745 43.7685 45.5797 43.6457 45.585C43.3091 45.5414 43.3091 45.5414 42.8626 45.0949C42.8626 44.0636 42.8626 43.0322 42.8626 41.9696C40.7999 41.9696 38.7371 41.9696 36.6119 41.9696C36.6119 44.327 36.6119 46.6844 36.6119 49.1133C37.1644 49.1133 37.7169 49.1133 38.2862 49.1133C39.0984 49.384 39.6766 49.9161 40.0799 50.6784C40.2281 51.1529 40.22 51.6051 40.2212 52.0996C40.222 52.2043 40.2227 52.309 40.2235 52.4168C40.2246 52.6376 40.2251 52.8583 40.2251 53.0791C40.2256 53.4169 40.2297 53.7546 40.2339 54.0924C40.2345 54.3072 40.235 54.5219 40.2352 54.7367C40.2368 54.8376 40.2384 54.9385 40.24 55.0425C40.2394 55.1368 40.2387 55.231 40.238 55.3281C40.2383 55.4107 40.2386 55.4933 40.2389 55.5784C40.1568 55.9238 40.0182 56.0409 39.7373 56.2571C39.4232 56.3009 39.1529 56.3174 38.8391 56.3137C38.7022 56.3148 38.7022 56.3148 38.5626 56.3159C38.2565 56.3176 37.9505 56.3162 37.6444 56.3148C37.4251 56.3154 37.2058 56.3162 36.9865 56.3172C36.3906 56.3192 35.7947 56.3184 35.1988 56.317C34.5757 56.3159 33.9526 56.3169 33.3295 56.3176C32.283 56.3185 31.2366 56.3174 30.1902 56.3153C28.9796 56.3128 27.7691 56.3136 26.5586 56.3161C25.52 56.3181 24.4814 56.3184 23.4428 56.3172C22.8222 56.3165 22.2016 56.3164 21.5809 56.3179C20.9975 56.3192 20.4141 56.3183 19.8307 56.3157C19.6163 56.3151 19.402 56.3153 19.1876 56.3163C18.8954 56.3175 18.6034 56.316 18.3112 56.3137C18.1833 56.3152 18.1833 56.3152 18.0529 56.3168C17.6615 56.311 17.4516 56.2867 17.1372 56.0446C16.9447 55.7806 16.9102 55.6565 16.9088 55.3335C16.9074 55.2403 16.906 55.1471 16.9045 55.0511C16.9054 54.9512 16.9063 54.8513 16.9072 54.7484C16.9068 54.6446 16.9064 54.5409 16.906 54.4339C16.9057 54.2144 16.9065 53.9948 16.9083 53.7753C16.9107 53.4413 16.9084 53.1076 16.9055 52.7737C16.9058 52.5599 16.9064 52.3461 16.9072 52.1323C16.9063 52.0333 16.9054 51.9343 16.9045 51.8324C16.9161 51.0503 17.1131 50.4602 17.6323 49.8676C17.705 49.8075 17.7777 49.7473 17.8525 49.6854C17.9249 49.6235 17.9973 49.5616 18.0719 49.4979C18.9052 48.9237 19.4159 49.1133 20.5384 49.1133C20.5384 46.7559 20.5384 44.3984 20.5384 41.9696C19.3843 41.9747 18.2302 41.9799 17.0411 41.9852C16.3091 41.9875 15.5771 41.9897 14.8451 41.9914C13.6837 41.994 12.5224 41.9971 11.361 42.0032C10.5151 42.0077 9.66914 42.0106 8.8232 42.0116C8.37565 42.0121 7.92813 42.0135 7.48059 42.0168C7.0585 42.0198 6.63646 42.0207 6.21435 42.0201C5.98732 42.0202 5.76028 42.0226 5.53326 42.0251C4.17271 42.019 3.11554 41.6912 2.12094 40.7417C1.0979 39.6701 0.825173 38.5233 0.836414 37.0732C0.835718 36.9336 0.835021 36.7939 0.834303 36.65C0.832453 36.2657 0.833354 35.8814 0.834744 35.4971C0.835759 35.0814 0.834192 34.6656 0.832967 34.2499C0.830987 33.4367 0.831408 32.6236 0.832704 31.8105C0.833715 31.1494 0.833849 30.4882 0.833364 29.8271C0.833295 29.7328 0.833227 29.6385 0.833156 29.5414C0.833014 29.3498 0.832869 29.1583 0.832722 28.9668C0.83145 27.1727 0.83291 25.3787 0.835312 23.5846C0.837306 22.0469 0.83696 20.5092 0.834902 18.9715C0.83251 17.1836 0.831573 15.3958 0.832943 13.6079C0.833085 13.4171 0.833225 13.2263 0.833364 13.0355C0.833433 12.9416 0.833501 12.8477 0.833572 12.751C0.833957 12.091 0.833309 11.4311 0.832257 10.7711C0.831001 9.96627 0.831349 9.16146 0.833721 8.35664C0.834891 7.94639 0.835361 7.53617 0.833878 7.12592C0.832292 6.68036 0.834192 6.23488 0.836414 5.78933C0.835418 5.66084 0.834422 5.53236 0.833396 5.39998C0.845915 4.10251 1.21956 3.06504 2.12094 2.12082C3.36167 0.936383 4.69661 0.827097 6.33186 0.836292ZM3.50182 3.53178C2.69919 4.42144 2.66208 5.33505 2.66562 6.48929C2.66553 6.6029 2.66543 6.71651 2.66534 6.83357C2.66515 7.21404 2.66577 7.59451 2.66638 7.97499C2.66641 8.24781 2.66639 8.52064 2.66633 8.79346C2.6663 9.38072 2.66662 9.96798 2.66725 10.5552C2.66815 11.4043 2.66844 12.2534 2.66858 13.1025C2.66883 14.4801 2.66957 15.8578 2.67063 17.2354C2.67165 18.5735 2.67244 19.9115 2.67292 21.2496C2.67295 21.333 2.67298 21.4163 2.67301 21.5022C2.67327 22.2273 2.67351 22.9523 2.67374 23.6774C2.67479 26.7982 2.67702 29.919 2.67905 33.0399C10.9301 33.0399 19.1811 33.0399 27.6822 33.0399C27.6822 31.2718 27.6822 29.5037 27.6822 27.6821C27.2402 27.6452 26.7981 27.6084 26.3427 27.5704C25.9609 27.1886 25.9675 27.0444 25.9613 26.5255C25.9623 26.3832 25.9623 26.3832 25.9634 26.238C25.9629 26.0912 25.9629 26.0912 25.9624 25.9415C25.9622 25.7347 25.9628 25.5279 25.9642 25.3211C25.966 25.0043 25.9642 24.6877 25.9621 24.3709C25.9623 24.1701 25.9627 23.9692 25.9634 23.7683C25.9627 23.6735 25.962 23.5786 25.9613 23.4808C25.969 22.8376 25.969 22.8376 26.1196 22.5783C26.479 22.3489 26.864 22.3894 27.2771 22.3925C27.3724 22.3919 27.4677 22.3914 27.5659 22.3908C27.8814 22.3893 28.1969 22.3903 28.5124 22.3914C28.7313 22.3912 28.9502 22.3908 29.1692 22.3904C29.6282 22.3899 30.0872 22.3906 30.5463 22.3922C31.1352 22.3941 31.7241 22.393 32.3131 22.391C32.7652 22.3898 33.2174 22.3902 33.6695 22.3911C33.8867 22.3913 34.1039 22.391 34.3211 22.3902C34.6244 22.3894 34.9277 22.3907 35.231 22.3925C35.3211 22.3919 35.4112 22.3912 35.5041 22.3905C36.1051 22.3973 36.1051 22.3973 36.3885 22.5783C36.5976 22.9384 36.5476 23.3629 36.5447 23.7683C36.545 23.8662 36.5454 23.964 36.5457 24.0648C36.5459 24.2716 36.5453 24.4784 36.5439 24.6852C36.5421 25.002 36.5439 25.3186 36.546 25.6354C36.5458 25.8362 36.5454 26.0371 36.5447 26.238C36.5454 26.3328 36.5461 26.4277 36.5468 26.5255C36.5387 27.1971 36.5387 27.1971 36.1654 27.5704C35.7234 27.6073 35.2813 27.6441 34.8259 27.6821C34.8259 29.4501 34.8259 31.2182 34.8259 33.0399C36.594 33.0399 38.3621 33.0399 40.1837 33.0399C40.1837 31.2718 40.1837 29.5037 40.1837 27.6821C39.7417 27.6452 39.2997 27.6084 38.8443 27.5704C38.4625 27.1886 38.4691 27.0444 38.4629 26.5255C38.4639 26.3832 38.4639 26.3832 38.4649 26.238C38.4646 26.1401 38.4643 26.0423 38.464 25.9415C38.4637 25.7347 38.4644 25.5279 38.4658 25.3211C38.4676 25.0043 38.4658 24.6877 38.4636 24.3709C38.4639 24.1701 38.4643 23.9692 38.4649 23.7683C38.4643 23.6735 38.4636 23.5786 38.4629 23.4808C38.4706 22.8376 38.4706 22.8376 38.6212 22.5783C38.9805 22.3489 39.3656 22.3894 39.7787 22.3925C39.874 22.3919 39.9693 22.3914 40.0675 22.3908C40.383 22.3893 40.6984 22.3903 41.0139 22.3914C41.2329 22.3912 41.4518 22.3908 41.6708 22.3904C42.1298 22.3899 42.5888 22.3906 43.0478 22.3922C43.6368 22.3941 44.2257 22.393 44.8146 22.391C45.2668 22.3898 45.7189 22.3902 46.1711 22.3911C46.3883 22.3913 46.6055 22.391 46.8227 22.3902C47.126 22.3894 47.4292 22.3907 47.7325 22.3925C47.8227 22.3919 47.9128 22.3912 48.0056 22.3905C48.6066 22.3973 48.6066 22.3973 48.8901 22.5783C49.0992 22.9384 49.0492 23.3629 49.0463 23.7683C49.0466 23.8662 49.0469 23.964 49.0472 24.0648C49.0475 24.2716 49.0469 24.4784 49.0455 24.6852C49.0437 25.002 49.0454 25.3186 49.0476 25.6354C49.0474 25.8362 49.0469 26.0371 49.0463 26.238C49.047 26.3328 49.0476 26.4277 49.0483 26.5255C49.0403 27.1971 49.0403 27.1971 48.6669 27.5704C48.2249 27.6073 47.7829 27.6441 47.3275 27.6821C47.3275 29.4501 47.3275 31.2182 47.3275 33.0399C49.6849 33.0399 52.0424 33.0399 54.4712 33.0399C54.4762 29.5304 54.4803 26.021 54.4826 22.5116C54.4829 22.0971 54.4832 21.6825 54.4835 21.268C54.4836 21.1855 54.4836 21.103 54.4837 21.0179C54.4846 19.6826 54.4864 18.3472 54.4885 17.0118C54.4905 15.6411 54.4918 14.2704 54.4922 12.8997C54.4925 12.0543 54.4935 11.2088 54.4953 10.3633C54.4966 9.7145 54.4968 9.06569 54.4965 8.41687C54.4965 8.15108 54.497 7.88528 54.4978 7.61949C54.499 7.25617 54.4987 6.89288 54.4981 6.52956C54.4987 6.42477 54.4994 6.31999 54.5 6.21203C54.4954 5.17293 54.3871 4.26496 53.6184 3.5017C52.8211 2.78242 52.0469 2.66516 50.9875 2.66457C50.9087 2.66437 50.8298 2.66418 50.7485 2.66397C50.4843 2.66346 50.22 2.66373 49.9557 2.664C49.7643 2.66379 49.5729 2.66354 49.3815 2.66323C48.8556 2.66255 48.3296 2.66257 47.8036 2.6627C47.2364 2.66272 46.6691 2.6621 46.1019 2.66158C44.9905 2.66065 43.8792 2.66034 42.7678 2.66028C41.8645 2.66023 40.9613 2.66 40.058 2.65964C37.4975 2.65866 34.937 2.65815 32.3764 2.65823C32.2384 2.65823 32.1003 2.65824 31.9581 2.65824C31.8199 2.65825 31.6816 2.65825 31.5392 2.65826C29.2987 2.6583 27.0583 2.65723 24.8178 2.65566C22.5177 2.65406 20.2177 2.65329 17.9176 2.65338C16.6261 2.65342 15.3346 2.65311 14.0432 2.65191C12.9436 2.6509 11.8441 2.65065 10.7445 2.65141C10.1835 2.65177 9.62256 2.65178 9.06157 2.65081C8.54786 2.64994 8.03416 2.65009 7.52045 2.65107C7.33477 2.65124 7.14909 2.65103 6.96341 2.65041C5.08021 2.60833 5.08021 2.60833 3.50182 3.53178ZM27.6822 24.1102C27.6822 24.6995 27.6822 25.2889 27.6822 25.8961C30.0396 25.8961 32.397 25.8961 34.8259 25.8961C34.8259 25.3068 34.8259 24.7174 34.8259 24.1102C32.4685 24.1102 30.111 24.1102 27.6822 24.1102ZM40.1837 24.1102C40.1837 24.6995 40.1837 25.2889 40.1837 25.8961C42.5412 25.8961 44.8986 25.8961 47.3275 25.8961C47.3275 25.3068 47.3275 24.7174 47.3275 24.1102C44.97 24.1102 42.6126 24.1102 40.1837 24.1102ZM29.4681 27.6821C29.4681 29.4501 29.4681 31.2182 29.4681 33.0399C30.6468 33.0399 31.8255 33.0399 33.04 33.0399C33.04 31.2718 33.04 29.5037 33.04 27.6821C31.8613 27.6821 30.6825 27.6821 29.4681 27.6821ZM41.9697 27.6821C41.9697 29.4501 41.9697 31.2182 41.9697 33.0399C43.1484 33.0399 44.3271 33.0399 45.5415 33.0399C45.5415 31.2718 45.5415 29.5037 45.5415 27.6821C44.3628 27.6821 43.1841 27.6821 41.9697 27.6821ZM2.67905 34.8258C2.51341 37.1279 2.51341 37.1279 3.34877 39.179C4.19345 40.0177 4.98154 40.1973 6.16274 40.198C6.24161 40.1982 6.32048 40.1984 6.40174 40.1986C6.66602 40.1991 6.93028 40.1988 7.19456 40.1985C7.38595 40.1987 7.57735 40.199 7.76874 40.1993C8.29472 40.2 8.82069 40.2 9.34666 40.1998C9.91391 40.1998 10.4812 40.2004 11.0484 40.201C12.1598 40.2019 13.2711 40.2022 14.3825 40.2023C15.2857 40.2023 16.189 40.2025 17.0923 40.2029C19.6528 40.2039 22.2133 40.2044 24.7738 40.2043C24.9119 40.2043 25.05 40.2043 25.1922 40.2043C25.3304 40.2043 25.4686 40.2043 25.6111 40.2043C27.8515 40.2042 30.092 40.2053 32.3325 40.2069C34.6325 40.2085 36.9326 40.2093 39.2327 40.2092C40.5242 40.2091 41.8156 40.2094 43.1071 40.2106C44.2067 40.2116 45.3062 40.2119 46.4057 40.2111C46.9667 40.2108 47.5277 40.2108 48.0887 40.2117C48.6024 40.2126 49.1161 40.2124 49.6298 40.2115C49.8155 40.2113 50.0012 40.2115 50.1869 40.2121C51.9334 40.2546 51.9334 40.2546 53.4666 39.5139C54.8125 38.1583 54.4712 36.8058 54.4712 34.8258C37.3798 34.8258 20.2884 34.8258 2.67905 34.8258ZM22.3244 41.9696C22.3244 44.327 22.3244 46.6844 22.3244 49.1133C26.4499 49.1133 30.5754 49.1133 34.8259 49.1133C34.8259 46.7559 34.8259 44.3984 34.8259 41.9696C30.7004 41.9696 26.5749 41.9696 22.3244 41.9696ZM44.6486 41.9696C44.6486 42.5589 44.6486 43.1483 44.6486 43.7555C45.2379 43.7555 45.8273 43.7555 46.4345 43.7555C46.4345 43.1661 46.4345 42.5768 46.4345 41.9696C45.8452 41.9696 45.2558 41.9696 44.6486 41.9696ZM18.9757 51.2341C18.5867 52.1066 18.5867 52.1066 18.7525 54.4711C25.2354 54.4711 31.7184 54.4711 38.3978 54.4711C38.5975 52.0668 38.5975 52.0668 38.0629 51.1225C37.6417 50.8707 37.2476 50.871 36.7642 50.8701C36.6913 50.8697 36.6183 50.8693 36.5432 50.8688C36.2997 50.8677 36.0562 50.8681 35.8127 50.8686C35.6377 50.8681 35.4628 50.8675 35.2878 50.8669C34.8132 50.8654 34.3386 50.8653 33.864 50.8656C33.4676 50.8657 33.0712 50.8652 32.6748 50.8646C31.7396 50.8634 30.8044 50.8633 29.8692 50.864C28.9047 50.8647 27.9403 50.8633 26.9758 50.8609C26.1474 50.859 25.319 50.8583 24.4905 50.8587C23.9959 50.8589 23.5013 50.8586 23.0067 50.857C22.5415 50.8556 22.0764 50.8558 21.6113 50.8573C21.4407 50.8575 21.2702 50.8572 21.0997 50.8563C20.8665 50.8551 20.6334 50.8561 20.4002 50.8575C20.2699 50.8575 20.1395 50.8574 20.0052 50.8574C19.5876 50.906 19.3263 51.002 18.9757 51.2341Z" fill="#7E1717"/>
<path d="M23.9403 6.19414C24.0607 6.19344 24.1811 6.19274 24.3051 6.19203C24.71 6.19024 25.1147 6.19166 25.5195 6.19306C25.8092 6.19246 26.0989 6.19166 26.3885 6.19069C27.0944 6.1887 27.8003 6.18913 28.5063 6.19043C29.0799 6.19144 29.6535 6.19157 30.2271 6.19109C30.3495 6.19098 30.3495 6.19098 30.4744 6.19088C30.6402 6.19074 30.8059 6.19059 30.9717 6.19045C32.5265 6.18917 34.0812 6.19064 35.636 6.19304C36.9706 6.19503 38.3051 6.19468 39.6396 6.19263C41.1888 6.19024 42.738 6.18929 44.2871 6.19067C44.4523 6.19081 44.6174 6.19095 44.7826 6.19109C44.9045 6.19119 44.9045 6.19119 45.0288 6.1913C45.6019 6.19168 46.1749 6.19103 46.7479 6.18998C47.519 6.1886 48.29 6.18958 49.0611 6.19217C49.3446 6.19276 49.628 6.19258 49.9115 6.1916C50.2975 6.19039 50.6834 6.1919 51.0694 6.19414C51.239 6.19264 51.239 6.19264 51.412 6.19112C52.1623 6.19958 52.1623 6.19958 52.5316 6.44691C52.7011 6.72301 52.7414 6.86722 52.742 7.18871C52.7439 7.33518 52.7439 7.33518 52.7458 7.48461C52.7445 7.64397 52.7445 7.64397 52.7431 7.80655C52.7443 7.97541 52.7443 7.97541 52.7455 8.14768C52.7474 8.52002 52.7461 8.89226 52.7446 9.2646C52.7449 9.52316 52.7454 9.78172 52.7459 10.0403C52.7466 10.5823 52.7456 11.1242 52.7435 11.6662C52.741 12.3614 52.7425 13.0565 52.7451 13.7517C52.7467 14.2856 52.7462 14.8195 52.7451 15.3535C52.7448 15.6098 52.7451 15.8661 52.7462 16.1225C52.7473 16.4806 52.7456 16.8386 52.7431 17.1967C52.744 17.3029 52.7449 17.4092 52.7458 17.5186C52.7446 17.6163 52.7433 17.7139 52.742 17.8145C52.7418 17.9414 52.7418 17.9414 52.7415 18.0709C52.6548 18.4336 52.5513 18.5432 52.2388 18.7524C51.8494 18.8194 51.4637 18.8126 51.0694 18.8091C50.949 18.8098 50.8286 18.8105 50.7046 18.8112C50.2998 18.813 49.895 18.8116 49.4902 18.8102C49.2005 18.8108 48.9109 18.8116 48.6212 18.8125C47.9153 18.8145 47.2094 18.8141 46.5035 18.8128C45.9298 18.8118 45.3562 18.8117 44.7826 18.8121C44.6602 18.8122 44.6602 18.8122 44.5353 18.8124C44.3696 18.8125 44.2038 18.8126 44.0381 18.8128C42.4833 18.8141 40.9285 18.8126 39.3737 18.8102C38.0392 18.8082 36.7046 18.8085 35.3701 18.8106C33.8209 18.813 32.2718 18.8139 30.7226 18.8126C30.5574 18.8124 30.3923 18.8123 30.2271 18.8121C30.1459 18.8121 30.0646 18.812 29.9809 18.8119C29.4079 18.8115 28.8348 18.8122 28.2618 18.8133C27.4907 18.8146 26.7197 18.8137 25.9486 18.8111C25.6652 18.8105 25.3817 18.8106 25.0982 18.8116C24.7122 18.8128 24.3263 18.8113 23.9403 18.8091C23.7707 18.8106 23.7707 18.8106 23.5977 18.8121C22.8474 18.8037 22.8474 18.8037 22.4781 18.5563C22.3086 18.2802 22.2683 18.136 22.2677 17.8145C22.2664 17.7169 22.2652 17.6192 22.2639 17.5186C22.2648 17.4124 22.2657 17.3061 22.2666 17.1967C22.2658 17.0841 22.2651 16.9715 22.2642 16.8555C22.2623 16.4832 22.2636 16.111 22.2651 15.7386C22.2648 15.4801 22.2644 15.2215 22.2638 14.9629C22.2631 14.421 22.2641 13.879 22.2662 13.337C22.2687 12.6419 22.2673 11.9467 22.2646 11.2516C22.263 10.7176 22.2635 10.1837 22.2646 9.64977C22.2649 9.39343 22.2646 9.13708 22.2635 8.88074C22.2624 8.52263 22.2641 8.16465 22.2666 7.80655C22.2657 7.70031 22.2648 7.59407 22.2639 7.48461C22.2651 7.38696 22.2664 7.28932 22.2677 7.18871C22.2679 7.1041 22.268 7.01948 22.2682 6.93231C22.4715 6.08196 23.228 6.18786 23.9403 6.19414ZM24.1103 8.03677C24.1103 10.9836 24.1103 13.9304 24.1103 16.9665C32.9507 16.9665 41.7911 16.9665 50.8994 16.9665C50.8994 14.0197 50.8994 11.0729 50.8994 8.03677C42.059 8.03677 33.2186 8.03677 24.1103 8.03677Z" fill="#7E1717"/>
<path d="M17.3503 6.41819C18.0005 6.8111 18.5273 7.42163 18.7525 8.14832C18.8424 9.02299 18.8781 9.89175 18.306 10.604C17.8751 11.0565 17.4616 11.428 16.855 11.6086C16.6319 11.5894 16.4089 11.5696 16.1866 11.5431C15.4895 11.4752 14.9361 11.4969 14.3542 11.9159C13.9417 12.2601 13.5687 12.6382 13.2036 13.0318C12.9742 13.278 12.7372 13.5142 12.4978 13.7505C12.348 13.9044 12.1988 14.0588 12.05 14.2138C11.9795 14.2843 11.909 14.3548 11.8363 14.4274C11.4741 14.8202 11.4741 14.8202 11.3937 15.3291C11.4489 15.5936 11.4489 15.5936 11.5337 15.8379C11.6554 16.2195 11.6413 16.5972 11.6367 16.9943C11.638 17.1082 11.638 17.1082 11.6393 17.2245C11.6375 17.6789 11.5547 18.0017 11.3855 18.4175C11.4341 18.7962 11.5645 18.9684 11.8429 19.2219C11.9135 19.287 11.9842 19.3521 12.0569 19.4191C12.1323 19.4869 12.2078 19.5546 12.2855 19.6244C12.3621 19.6945 12.4388 19.7646 12.5177 19.8368C12.9582 20.2384 13.4021 20.6363 13.8538 21.0253C14.1132 21.2503 14.3678 21.4802 14.6225 21.7103C15.0256 22.074 15.4317 22.4336 15.8417 22.7894C16.211 23.1151 16.572 23.45 16.9335 23.7844C17.1661 23.9787 17.3516 24.12 17.6363 24.2218C17.7468 24.1849 17.8573 24.1481 17.9712 24.1101C18.8531 24.0418 19.7078 23.9792 20.4268 24.5566C20.99 25.0929 21.3874 25.5793 21.4689 26.3726C21.4794 27.3232 21.4446 27.9807 20.7761 28.6827C20.0055 29.395 19.3997 29.5216 18.3558 29.502C17.4782 29.4243 17.0169 29.0162 16.4582 28.3626C16.1101 27.8574 16.0628 27.5316 16.1336 26.9202C16.1843 26.4018 16.2241 25.9097 15.9356 25.4556C15.5699 25.0393 15.1431 24.6989 14.7017 24.3662C14.469 24.19 14.2528 23.9989 14.0365 23.8032C13.9692 23.745 13.9019 23.6869 13.8325 23.627C13.5721 23.4005 13.316 23.1694 13.0599 22.9381C12.6565 22.5741 12.2501 22.2143 11.8399 21.8581C11.5689 21.6193 11.3032 21.375 11.0367 21.1312C10.8557 20.9704 10.6744 20.8099 10.4926 20.6499C10.4304 20.5922 10.3683 20.5345 10.3042 20.475C10.1305 20.3197 10.1305 20.3197 9.82284 20.2034C9.61951 20.2787 9.41669 20.3563 9.21939 20.4463C8.29972 20.7385 7.12481 20.6456 6.26318 20.2322C5.33173 19.6768 4.75251 18.908 4.46503 17.8594C4.35357 16.6204 4.42602 15.5449 5.21847 14.5317C5.8486 13.857 6.63906 13.4301 7.5647 13.3649C7.71512 13.3643 7.86556 13.3649 8.01598 13.3666C8.08972 13.3657 8.16346 13.3649 8.23944 13.364C8.66463 13.3656 9.00335 13.4164 9.40781 13.5495C9.71286 13.6184 9.86955 13.6472 10.1568 13.5171C10.3854 13.3427 10.5862 13.1567 10.7895 12.9533C10.8649 12.8809 10.9403 12.8085 11.0179 12.734C11.1764 12.5798 11.3333 12.4239 11.4886 12.2666C11.7249 12.0296 11.9684 11.8026 12.2138 11.575C13.1027 10.7407 13.1027 10.7407 13.4827 9.62359C13.4872 9.27907 13.4542 8.9504 13.4097 8.6093C13.3537 8.07549 13.554 7.69541 13.8412 7.25535C14.0605 7.00508 14.0605 7.00508 14.2807 6.82282C14.3531 6.76095 14.4255 6.69908 14.5 6.63533C15.2886 6.09202 16.4747 6.0302 17.3503 6.41819ZM15.4737 8.3297C15.2379 8.67426 15.224 8.85469 15.2923 9.26453C15.4597 9.54358 15.4597 9.54358 15.7388 9.71101C16.1486 9.77932 16.329 9.76538 16.6736 9.52963C16.9093 9.18507 16.9233 9.00464 16.855 8.5948C16.6875 8.31575 16.6875 8.31575 16.4085 8.14832C15.9986 8.08001 15.8182 8.09395 15.4737 8.3297ZM6.54397 16.0316C6.29795 16.5425 6.27361 16.967 6.36259 17.5245C6.62263 18.0646 6.93871 18.3807 7.4788 18.6407C8.03629 18.7297 8.46076 18.7053 8.97173 18.4593C9.37179 18.0974 9.66605 17.8075 9.75395 17.2568C9.78253 16.6223 9.70411 16.2242 9.26474 15.7386C8.77912 15.2992 8.38095 15.2208 7.74652 15.2493C7.19581 15.3372 6.90593 15.6315 6.54397 16.0316ZM18.1526 26.1891C17.9168 26.5336 17.9029 26.7141 17.9712 27.1239C18.1386 27.403 18.1386 27.403 18.4177 27.5704C18.8275 27.6387 19.0079 27.6248 19.3525 27.389C19.5882 27.0444 19.6022 26.864 19.5339 26.4542C19.3664 26.1751 19.3664 26.1751 19.0874 26.0077C18.6776 25.9394 18.4971 25.9533 18.1526 26.1891Z" fill="#7E1717"/>
<path d="M25.896 13.3945C33.5577 13.3945 41.2193 13.3945 49.1132 13.3945C49.1132 13.9839 49.1132 14.5733 49.1132 15.1805C41.4515 15.1805 33.7898 15.1805 25.896 15.1805C25.896 14.5911 25.896 14.0018 25.896 13.3945Z" fill="#7E1717"/>
<path d="M25.896 9.82263C33.5577 9.82263 41.2193 9.82263 49.1132 9.82263C49.1132 10.412 49.1132 11.0014 49.1132 11.6086C41.4515 11.6086 33.7898 11.6086 25.896 11.6086C25.896 11.0192 25.896 10.4299 25.896 9.82263Z" fill="#7E1717"/>
<path d="M50.0063 36.6117C50.5957 36.6117 51.1851 36.6117 51.7923 36.6117C51.7923 37.2011 51.7923 37.7904 51.7923 38.3976C51.2029 38.3976 50.6136 38.3976 50.0063 38.3976C50.0063 37.8083 50.0063 37.2189 50.0063 36.6117Z" fill="#7E1717"/>
<path d="M46.4346 36.6117C47.0239 36.6117 47.6133 36.6117 48.2205 36.6117C48.2205 37.2011 48.2205 37.7904 48.2205 38.3976C47.6311 38.3976 47.0418 38.3976 46.4346 38.3976C46.4346 37.8083 46.4346 37.2189 46.4346 36.6117Z" fill="#7E1717"/>
<path d="M42.8623 36.6117C43.4517 36.6117 44.041 36.6117 44.6482 36.6117C44.6482 37.2011 44.6482 37.7904 44.6482 38.3976C44.0589 38.3976 43.4695 38.3976 42.8623 38.3976C42.8623 37.8083 42.8623 37.2189 42.8623 36.6117Z" fill="#7E1717"/>
</svg>
