<svg width="58" height="59" viewBox="0 0 58 59" fill="none" xmlns="http://www.w3.org/2000/svg">
<g clip-path="url(#clip0_391_231)">
<path d="M31.5797 3.10752C31.7328 3.16364 31.8861 3.21953 32.0394 3.2752C32.3686 3.39501 32.6974 3.51587 33.0259 3.63751C33.9215 3.96829 34.8216 4.28647 35.7212 4.60596C35.8151 4.63933 35.9089 4.67269 36.0056 4.70707C45.4777 8.16186 45.4777 8.16186 55.4655 8.46893C56.1504 8.38829 56.6692 8.33179 57.2862 8.66999C57.6775 9.02661 57.8889 9.29479 57.9582 9.82489C57.9745 10.2392 57.9763 10.6522 57.9734 11.0667C57.9739 11.228 57.9746 11.3892 57.9755 11.5505C57.9774 11.9931 57.9764 12.4357 57.9751 12.8784C57.9741 13.3559 57.9756 13.8335 57.9768 14.311C57.9788 15.2464 57.9784 16.1817 57.9771 17.117C57.9761 17.8772 57.976 18.6373 57.9764 19.3974C57.9765 19.5055 57.9766 19.6137 57.9766 19.7251C57.9768 19.9448 57.9769 20.1645 57.9771 20.3842C57.9784 22.4446 57.9769 24.5051 57.9745 26.5656C57.9725 28.3339 57.9728 30.1022 57.9749 31.8705C57.9773 33.9236 57.9782 35.9766 57.9769 38.0297C57.9767 38.2486 57.9766 38.4675 57.9764 38.6863C57.9764 38.794 57.9763 38.9017 57.9762 39.0127C57.9758 39.772 57.9765 40.5313 57.9775 41.2905C57.9788 42.2157 57.9785 43.1409 57.9761 44.0661C57.9749 44.5382 57.9744 45.0103 57.9759 45.4825C57.9773 45.9146 57.9765 46.3467 57.9741 46.7788C57.9736 46.9352 57.9739 47.0916 57.975 47.248C57.9842 48.6943 57.9842 48.6943 57.4702 49.246C56.847 49.8543 56.1073 49.7523 55.2899 49.7432C55.1358 49.7431 54.9817 49.7431 54.8277 49.7434C54.4107 49.7435 53.9938 49.7409 53.5769 49.7378C53.1407 49.735 52.7045 49.7347 52.2683 49.7342C51.4428 49.7328 50.6174 49.7292 49.792 49.7247C48.852 49.7197 47.912 49.7172 46.9721 49.715C45.039 49.7103 43.106 49.7021 41.1729 49.6925C41.1729 50.7608 41.1729 51.829 41.1729 52.9296C41.7134 52.9238 41.7134 52.9238 42.2648 52.9179C42.6157 52.9153 42.9667 52.9132 43.3177 52.9112C43.5606 52.9096 43.8036 52.9073 44.0465 52.9044C44.3968 52.9003 44.747 52.8984 45.0972 52.8969C45.205 52.8952 45.3127 52.8935 45.4236 52.8917C46.12 52.8915 46.8361 52.9249 47.3747 53.4266C47.8102 53.9354 47.9038 54.2543 47.8944 54.9036C47.8455 55.4313 47.6355 55.7417 47.2495 56.09C46.8562 56.3623 46.659 56.4041 46.1847 56.405C46.0633 56.4055 45.942 56.406 45.817 56.4065C45.6825 56.4065 45.5481 56.4065 45.4097 56.4065C45.2677 56.4069 45.1258 56.4073 44.9796 56.4077C44.5843 56.4088 44.189 56.4092 43.7937 56.4095C43.3679 56.41 42.9421 56.411 42.5163 56.412C41.4872 56.4142 40.4582 56.4153 39.4292 56.4163C38.9449 56.4168 38.4606 56.4174 37.9763 56.418C36.3668 56.4199 34.7574 56.4215 33.1479 56.4223C32.7301 56.4225 32.3122 56.4228 31.8944 56.423C31.7906 56.423 31.6867 56.4231 31.5797 56.4231C29.8969 56.4241 28.214 56.4269 26.5312 56.4305C24.8044 56.4342 23.0775 56.4362 21.3507 56.4366C20.3808 56.4368 19.4109 56.4378 18.441 56.4406C17.615 56.4431 16.7891 56.444 15.9632 56.4429C15.5417 56.4424 15.1202 56.4426 14.6987 56.4448C14.2419 56.4471 13.7852 56.4459 13.3283 56.4445C13.1282 56.4463 13.1282 56.4463 12.9241 56.4482C12.2233 56.4427 11.787 56.4208 11.2574 55.9435C10.8386 55.4669 10.7726 55.0291 10.7786 54.4126C10.8281 54.0212 11.0089 53.7859 11.2574 53.4878C11.3057 53.4233 11.3541 53.3588 11.4039 53.2924C12.024 52.8331 12.8412 52.9001 13.5732 52.9078C13.7425 52.9083 13.7425 52.9083 13.9152 52.9088C14.2734 52.91 14.6316 52.9128 14.9899 52.9157C15.2337 52.9168 15.4775 52.9178 15.7213 52.9187C16.317 52.921 16.9127 52.9254 17.5084 52.9296C17.5084 51.8614 17.5084 50.7931 17.5084 49.6925C17.0385 49.6949 16.5686 49.6972 16.0845 49.6996C14.5331 49.707 12.9817 49.7119 11.4304 49.7156C10.4896 49.7179 9.54892 49.7211 8.6082 49.7262C7.7882 49.7306 6.96821 49.7335 6.14821 49.7345C5.71407 49.7351 5.27997 49.7365 4.84584 49.7397C4.43702 49.7428 4.02825 49.7437 3.61942 49.743C3.39825 49.7432 3.1771 49.7456 2.95595 49.7481C1.71963 49.7423 1.71963 49.7423 1.21112 49.246C0.607638 48.5983 0.702097 47.8595 0.707924 47.017C0.70741 46.8558 0.706699 46.6945 0.705812 46.5333C0.703948 46.0906 0.704872 45.648 0.706255 45.2054C0.707265 44.7278 0.705705 44.2503 0.704477 43.7727C0.70249 42.8374 0.702921 41.902 0.704215 40.9667C0.705223 40.2066 0.705362 39.4465 0.704875 38.6863C0.704807 38.5782 0.704738 38.4701 0.704668 38.3586C0.704525 38.1389 0.704378 37.9193 0.704232 37.6996C0.702958 35.6391 0.704422 33.5786 0.706821 31.5182C0.708815 29.7498 0.70847 27.9815 0.706412 26.2132C0.704023 24.1601 0.703082 22.1071 0.704453 20.054C0.704595 19.8351 0.704737 19.6163 0.704875 19.3974C0.704979 19.2358 0.704978 19.2358 0.705083 19.071C0.705469 18.3117 0.704819 17.5525 0.703768 16.7932C0.702517 15.868 0.702854 14.9428 0.705233 14.0176C0.706407 13.5455 0.706861 13.0734 0.705386 12.6013C0.704057 12.1691 0.704788 11.737 0.707165 11.3049C0.707664 11.1485 0.707408 10.9921 0.706327 10.8357C0.696959 9.36913 0.696959 9.36913 1.21112 8.83771C1.77332 8.39411 2.35976 8.33227 3.05217 8.36747C3.18832 8.3713 3.18832 8.3713 3.32722 8.37521C3.52392 8.38078 3.72059 8.38728 3.91723 8.39462C4.45587 8.41373 4.9947 8.42233 5.53357 8.43187C5.70353 8.43504 5.70353 8.43504 5.87692 8.43827C10.3164 8.51592 13.9107 8.22996 18.0039 6.43832C18.9823 6.01017 19.9709 5.64056 20.9801 5.29361C21.0933 5.25466 21.0933 5.25466 21.2088 5.21492C21.5852 5.08564 21.9618 4.95709 22.3385 4.82892C23.0199 4.59684 23.6989 4.35806 24.3781 4.1198C24.5038 4.07611 24.6295 4.03242 24.7591 3.98741C25.3917 3.76678 26.0208 3.53965 26.6467 3.30028C26.771 3.2534 26.8953 3.20653 27.0234 3.15824C27.256 3.07018 27.4879 2.98041 27.719 2.88849C29.1155 2.36316 30.2155 2.59045 31.5797 3.10752ZM28.53 6.30102C28.4413 6.3326 28.3526 6.36417 28.2612 6.39671C28.1659 6.43184 28.0706 6.46698 27.9724 6.50318C27.87 6.53989 27.7677 6.5766 27.6622 6.61442C27.4401 6.69423 27.2181 6.7745 26.9962 6.8552C26.3991 7.07235 25.8008 7.28609 25.2027 7.50039C25.0776 7.54533 24.9524 7.59027 24.8235 7.63657C23.3567 8.16266 21.8838 8.6713 20.4106 9.17956C20.1523 9.26878 19.8941 9.358 19.6358 9.44723C19.0383 9.65356 18.4408 9.85967 17.8433 10.0656C18.1029 10.3252 18.2902 10.3846 18.6358 10.5046C18.7556 10.5465 18.8754 10.5884 18.9989 10.6316C19.1957 10.6994 19.1957 10.6994 19.3964 10.7685C19.5328 10.816 19.6692 10.8636 19.8097 10.9126C20.1797 11.0416 20.5499 11.1698 20.9202 11.2977C21.533 11.5095 22.1455 11.722 22.758 11.9345C22.9117 11.9877 23.0654 12.041 23.2191 12.0942C24.2048 12.4356 25.1874 12.7843 26.1668 13.1436C26.4685 13.2532 26.7703 13.3627 27.0721 13.4722C27.2574 13.54 27.4424 13.6088 27.627 13.6784C27.8805 13.774 28.1349 13.8663 28.3897 13.9581C28.4965 13.9999 28.4965 13.9999 28.6055 14.0426C29.5207 14.3635 30.4834 13.9058 31.3604 13.6125C31.4681 13.5769 31.5759 13.5413 31.6869 13.5046C32.0398 13.3878 32.3925 13.2703 32.7452 13.1527C32.9913 13.071 33.2373 12.9892 33.4834 12.9075C33.9973 12.7367 34.5111 12.5655 35.0248 12.3941C35.6845 12.1739 36.3446 11.955 37.0049 11.7365C37.5122 11.5683 38.0192 11.3994 38.5262 11.2303C38.7697 11.1492 39.0132 11.0684 39.2569 10.9878C39.596 10.8756 39.9347 10.7623 40.2734 10.6488C40.3747 10.6155 40.4761 10.5822 40.5805 10.5479C40.6722 10.5169 40.7639 10.4859 40.8583 10.454C40.9384 10.4274 41.0185 10.4007 41.101 10.3732C41.3073 10.3016 41.3073 10.3016 41.3962 10.0656C39.88 9.55497 38.3634 9.04552 36.8463 8.53741C36.1419 8.30144 35.4376 8.0651 34.7337 7.82791C34.0543 7.59904 33.3747 7.37116 32.6948 7.14395C32.4354 7.05707 32.1761 6.96984 31.917 6.88225C31.5541 6.75968 31.1909 6.63837 30.8275 6.51735C30.7203 6.48081 30.6131 6.44428 30.5027 6.40664C29.8075 6.17707 29.2396 6.04349 28.53 6.30102ZM4.225 11.8516C4.225 23.1972 4.225 34.5427 4.225 46.2321C20.8013 46.2321 37.3777 46.2321 54.4563 46.2321C54.4563 34.8866 54.4563 23.541 54.4563 11.8516C52.5777 11.8516 50.699 11.8516 48.7634 11.8516C48.7606 12.5906 48.7577 13.3296 48.7547 14.0911C48.7519 14.5601 48.749 15.0291 48.7456 15.4982C48.7402 16.2421 48.7352 16.9861 48.7332 17.7301C48.7315 18.3301 48.7276 18.9301 48.7223 19.5301C48.7207 19.7586 48.7198 19.9872 48.7197 20.2158C48.7194 20.5367 48.7164 20.8575 48.7127 21.1784C48.7133 21.2723 48.7139 21.3661 48.7144 21.4628C48.7032 22.1044 48.5579 22.5859 48.2053 23.1257C47.8737 23.4332 47.5009 23.5628 47.0507 23.5853C46.5512 23.547 46.1385 23.4575 45.7496 23.1257C45.3969 22.5635 45.3653 22.1102 45.3664 21.468C45.3653 21.371 45.3641 21.274 45.363 21.174C45.3596 20.8551 45.3586 20.5363 45.3576 20.2174C45.3557 19.9956 45.3536 19.7738 45.3515 19.552C45.3462 18.9696 45.3429 18.3871 45.3399 17.8047C45.3366 17.2098 45.3314 16.6149 45.3264 16.0201C45.3168 14.8538 45.3094 13.6876 45.3031 12.5213C44.198 12.8897 43.0929 13.2581 41.9543 13.6376C41.9514 14.1536 41.9485 14.6696 41.9456 15.2012C41.9428 15.5288 41.9398 15.8564 41.9364 16.184C41.931 16.7036 41.9261 17.2232 41.924 17.7428C41.9224 18.1619 41.9185 18.5809 41.9132 18.9999C41.9115 19.1595 41.9106 19.3191 41.9106 19.4787C41.9103 19.7029 41.907 19.927 41.9036 20.1511C41.9026 20.2786 41.9016 20.406 41.9006 20.5372C41.8295 20.9745 41.67 21.2184 41.3962 21.563C41.0968 21.7418 41.0968 21.7418 40.7399 21.8808C40.6393 21.921 40.6393 21.921 40.5366 21.962C40.303 22.0545 40.0683 22.1436 39.8334 22.2327C39.6504 22.3039 39.4674 22.3753 39.2845 22.4468C38.6524 22.6926 38.0186 22.9336 37.3846 23.1746C37.0368 23.3072 36.689 23.4399 36.3412 23.5726C36.1055 23.6626 35.8698 23.7525 35.6341 23.8423C34.3615 24.3275 33.0907 24.8171 31.8199 25.3071C31.5581 25.4081 31.2961 25.5089 31.0342 25.6098C30.9574 25.6395 30.8805 25.6692 30.8014 25.6997C29.6321 26.1499 28.8035 26.1029 27.6449 25.6386C27.5373 25.5972 27.4298 25.5559 27.3189 25.5133C26.9666 25.3773 26.6153 25.2388 26.264 25.1001C26.0182 25.0046 25.7723 24.9092 25.5264 24.8141C25.0131 24.6151 24.5002 24.4151 23.9877 24.2142C23.2053 23.9081 22.4212 23.6066 21.6368 23.3058C21.2627 23.1621 20.8886 23.0182 20.5146 22.8743C20.2741 22.7818 20.0335 22.6894 19.793 22.597C19.4572 22.468 19.1218 22.3383 18.7864 22.2083C18.6874 22.1704 18.5883 22.1324 18.4863 22.0934C17.1812 21.5855 17.1812 21.5855 16.8386 20.8932C16.7941 20.5422 16.7941 20.5422 16.7904 20.1433C16.7887 20.0338 16.7887 20.0338 16.7869 19.922C16.7836 19.6823 16.7825 19.4425 16.7815 19.2027C16.7796 19.0358 16.7776 18.869 16.7754 18.7021C16.7702 18.264 16.7668 17.826 16.7639 17.388C16.7606 16.9405 16.7554 16.4931 16.7503 16.0456C16.7407 15.1685 16.7332 14.2914 16.727 13.4143C12.5442 11.289 9.17583 11.8516 4.225 11.8516ZM20.1874 14.7538C20.1874 16.1905 20.1874 17.6271 20.1874 19.1072C21.5975 19.6496 21.5975 19.6496 23.0078 20.1915C23.8295 20.5072 24.6509 20.8239 25.4712 21.1432C25.8679 21.2976 26.2648 21.4515 26.6617 21.6054C26.8516 21.6791 27.0414 21.7531 27.2312 21.8274C27.4971 21.9314 27.7632 22.0346 28.0295 22.1377C28.1464 22.1838 28.1464 22.1838 28.2657 22.2308C29.2556 22.6117 29.7428 22.552 30.7041 22.1617C30.8154 22.118 30.9266 22.0743 31.0412 22.0293C31.4029 21.887 31.7636 21.7424 32.1243 21.5979C32.3717 21.5001 32.6191 21.4024 32.8666 21.3049C33.3593 21.1107 33.8516 20.9157 34.3436 20.7201C35.2619 20.3555 36.1836 19.9997 37.1056 19.6444C37.5637 19.4671 38.0219 19.2899 38.4939 19.1072C38.4939 17.7074 38.4939 16.3077 38.4939 14.8655C37.6577 15.0494 37.6577 15.0494 36.8485 15.2896C36.6757 15.3473 36.6757 15.3473 36.4994 15.406C36.3173 15.4676 36.3173 15.4676 36.1315 15.5304C36.0031 15.5734 35.8747 15.6163 35.7424 15.6606C35.3339 15.7974 34.9256 15.9349 34.5173 16.0724C34.2456 16.1635 33.974 16.2546 33.7023 16.3456C33.5042 16.412 33.5042 16.412 33.3021 16.4798C33.0414 16.5672 32.7806 16.6545 32.5198 16.7417C31.9881 16.9197 31.457 17.0983 30.9288 17.2865C30.8526 17.3132 30.7764 17.34 30.6979 17.3675C30.5093 17.434 30.3212 17.502 30.1332 17.5701C29.1733 17.8087 28.4485 17.5441 27.5424 17.2196C27.4127 17.1744 27.283 17.1292 27.1494 17.0826C26.7352 16.9379 26.3217 16.7912 25.9082 16.6445C25.6354 16.5488 25.3626 16.4532 25.0897 16.3578C24.0828 16.0051 23.0766 15.6502 22.0717 15.2915C21.968 15.2547 21.8643 15.2179 21.7575 15.18C21.5665 15.1122 21.3756 15.0439 21.185 14.9752C20.839 14.8527 20.5573 14.7538 20.1874 14.7538ZM20.9688 49.6925C20.9688 50.7608 20.9688 51.829 20.9688 52.9296C26.4942 52.9296 32.0197 52.9296 37.7125 52.9296C37.7125 51.8614 37.7125 50.7931 37.7125 49.6925C32.1871 49.6925 26.6617 49.6925 20.9688 49.6925Z" fill="#7E1717"/>
<path d="M22.5464 37.8456C22.6436 37.8452 22.7408 37.8447 22.841 37.8443C23.0022 37.8445 23.0022 37.8445 23.1667 37.8446C23.2804 37.8443 23.3941 37.8439 23.5112 37.8436C23.8946 37.8426 24.278 37.8425 24.6614 37.8423C24.9352 37.8418 25.2091 37.8412 25.483 37.8406C26.2289 37.8391 26.9747 37.8384 27.7206 37.8379C28.1862 37.8376 28.6519 37.8371 29.1175 37.8366C30.4064 37.8353 31.6953 37.8341 32.9841 37.8338C33.0667 37.8337 33.1492 37.8337 33.2342 37.8337C33.317 37.8337 33.3997 37.8336 33.4849 37.8336C33.6526 37.8336 33.8202 37.8335 33.9878 37.8335C34.071 37.8334 34.1541 37.8334 34.2398 37.8334C35.587 37.8329 36.9342 37.831 38.2814 37.8284C39.6641 37.8257 41.0468 37.8244 42.4296 37.8242C43.2061 37.8241 43.9826 37.8235 44.7591 37.8215C45.4895 37.8196 46.2199 37.8194 46.9503 37.8204C47.2186 37.8204 47.4868 37.82 47.7551 37.8189C48.121 37.8174 48.4869 37.8181 48.8527 37.8193C48.9592 37.8184 49.0657 37.8175 49.1754 37.8165C49.755 37.8209 50.1606 37.8692 50.661 38.1952C51.1438 38.7171 51.2616 39.1369 51.2492 39.8307C51.1995 40.2632 51.0574 40.5486 50.7726 40.8742C50.1268 41.337 49.4986 41.3845 48.7258 41.3766C48.6124 41.3772 48.4991 41.3778 48.3823 41.3785C48.0041 41.38 47.6259 41.3783 47.2476 41.3767C46.9758 41.3771 46.7041 41.3777 46.4323 41.3785C45.7717 41.3799 45.1111 41.3792 44.4505 41.3775C43.6809 41.3756 42.9112 41.376 42.1416 41.3764C40.7682 41.3771 39.3949 41.3755 38.0215 41.3727C36.6895 41.3701 35.3575 41.3693 34.0255 41.3704C32.574 41.3717 31.1224 41.3719 29.6709 41.3703C29.5161 41.3702 29.3613 41.37 29.2065 41.3698C29.1303 41.3697 29.0542 41.3696 28.9757 41.3696C28.4394 41.369 27.9031 41.3692 27.3669 41.3697C26.6451 41.3703 25.9233 41.3691 25.2015 41.3667C24.9364 41.3661 24.6714 41.366 24.4064 41.3666C24.0449 41.3672 23.6835 41.3659 23.322 41.3639C23.2169 41.3646 23.1117 41.3653 23.0034 41.366C22.2513 41.3587 21.7826 41.2188 21.2129 40.6997C20.8677 40.2518 20.8273 39.7517 20.8571 39.1998C21.0466 38.609 21.3786 38.3316 21.8617 37.9719C22.118 37.8437 22.2613 37.8461 22.5464 37.8456Z" fill="#7E1717"/>
<path d="M23.104 31.1194C23.2189 31.1188 23.3338 31.1182 23.4521 31.1176C23.8376 31.116 24.223 31.1168 24.6084 31.1176C24.8846 31.117 25.1607 31.1162 25.4368 31.1153C26.1093 31.1135 26.7818 31.1133 27.4543 31.1139C28.0009 31.1143 28.5475 31.1142 29.0941 31.1136C29.1719 31.1135 29.2497 31.1134 29.3299 31.1133C29.4879 31.1131 29.646 31.113 29.804 31.1128C31.2862 31.1113 32.7683 31.1119 34.2505 31.1131C35.6063 31.1142 36.9621 31.1128 38.3179 31.1101C39.7103 31.1074 41.1026 31.1063 42.4949 31.1071C43.2766 31.1075 44.0582 31.1072 44.8398 31.1053C45.5747 31.1035 46.3096 31.104 47.0445 31.1061C47.3144 31.1065 47.5843 31.1061 47.8542 31.105C48.2223 31.1035 48.5902 31.1048 48.9583 31.1068C49.0655 31.1057 49.1726 31.1046 49.2829 31.1035C49.9111 31.1105 50.2762 31.1868 50.7728 31.6092C51.2123 32.095 51.2901 32.493 51.2624 33.1275C51.1757 33.6652 50.8808 33.9651 50.4937 34.3231C50.0958 34.5917 49.7622 34.637 49.2886 34.6378C49.193 34.6382 49.0974 34.6386 48.9989 34.6391C48.8944 34.639 48.7899 34.6389 48.6822 34.6388C48.5151 34.6393 48.5151 34.6393 48.3446 34.6398C47.9701 34.6407 47.5956 34.6409 47.2212 34.6411C46.9531 34.6416 46.6851 34.6422 46.417 34.6428C45.688 34.6442 44.9589 34.6449 44.2299 34.6454C43.7745 34.6457 43.3192 34.6462 42.8638 34.6467C41.6027 34.6481 40.3416 34.6492 39.0805 34.6496C38.9594 34.6496 38.9594 34.6496 38.8359 34.6497C38.7146 34.6497 38.7146 34.6497 38.5908 34.6498C38.4269 34.6498 38.263 34.6499 38.0991 34.6499C37.9772 34.6499 37.9772 34.6499 37.8528 34.65C36.5357 34.6504 35.2186 34.6524 33.9016 34.655C32.5488 34.6576 31.1961 34.659 29.8434 34.6591C29.0841 34.6592 28.3248 34.6599 27.5655 34.6619C26.8513 34.6638 26.137 34.664 25.4227 34.663C25.1606 34.6629 24.8986 34.6634 24.6365 34.6645C24.2785 34.6659 23.9206 34.6653 23.5626 34.6641C23.4074 34.6655 23.4074 34.6655 23.249 34.6668C22.4968 34.6611 21.8175 34.5787 21.2619 34.0231C20.9086 33.4524 20.8136 33.079 20.9087 32.4146C21.0247 31.938 21.2644 31.6209 21.6395 31.3145C22.1271 31.0929 22.5742 31.1161 23.104 31.1194Z" fill="#7E1717"/>
<path d="M9.37153 31.105C9.48601 31.1038 9.48601 31.1038 9.60281 31.1026C9.8533 31.1007 10.1036 31.102 10.3541 31.1035C10.5293 31.1032 10.7044 31.1027 10.8795 31.1022C11.2458 31.1015 11.6121 31.1025 11.9784 31.1046C12.4469 31.1071 12.9152 31.1056 13.3837 31.103C13.7451 31.1014 14.1065 31.1019 14.4679 31.103C14.6405 31.1033 14.8132 31.103 14.9859 31.1019C15.2277 31.1008 15.4693 31.1025 15.7111 31.105C15.917 31.1055 15.917 31.1055 16.1271 31.1061C16.668 31.1875 17.0182 31.4322 17.3761 31.8395C17.6358 32.2634 17.6359 32.625 17.64 33.1113C17.6407 33.1839 17.6415 33.2566 17.6422 33.3314C17.6444 33.5717 17.6457 33.8121 17.6468 34.0524C17.6473 34.1347 17.6477 34.217 17.6482 34.3018C17.6505 34.7379 17.6521 35.1739 17.6532 35.6099C17.6544 36.0587 17.6583 36.5074 17.6627 36.9561C17.6656 37.3025 17.6665 37.6489 17.6669 37.9953C17.6675 38.1606 17.6688 38.3259 17.6709 38.4912C17.6922 40.2979 17.6922 40.2979 17.1737 40.8742C16.4658 41.5026 15.476 41.3857 14.5889 41.38C14.4247 41.3803 14.2604 41.3807 14.0961 41.3813C13.7531 41.3819 13.4101 41.381 13.0671 41.3789C12.6295 41.3763 12.1919 41.3778 11.7543 41.3805C11.4155 41.3821 11.0767 41.3816 10.7378 41.3804C10.5766 41.3801 10.4153 41.3805 10.254 41.3815C8.52085 41.3903 8.52085 41.3903 7.90885 40.8742C7.27301 40.1619 7.39749 39.2339 7.40305 38.3308C7.40274 38.1583 7.40231 37.9858 7.40175 37.8134C7.40109 37.453 7.40204 37.0926 7.40414 36.7322C7.40668 36.2714 7.40521 35.8107 7.40254 35.3499C7.40092 34.9941 7.40144 34.6384 7.4026 34.2826C7.40289 34.1128 7.40253 33.9429 7.40149 33.773C7.40035 33.5353 7.40209 33.2977 7.40457 33.0599C7.40493 32.925 7.40528 32.79 7.40565 32.651C7.49692 32.0522 7.76406 31.7302 8.22207 31.3478C8.63765 31.1321 8.90504 31.1062 9.37153 31.105ZM10.9227 34.6232C10.9227 35.6914 10.9227 36.7597 10.9227 37.8603C11.991 37.8603 13.0592 37.8603 14.1599 37.8603C14.1599 36.792 14.1599 35.7238 14.1599 34.6232C13.0916 34.6232 12.0233 34.6232 10.9227 34.6232Z" fill="#7E1717"/>
</g>
<defs>
<clipPath id="clip0_391_231">
<rect width="57.1521" height="57.1521" fill="white" transform="translate(0.764648 0.912354)"/>
</clipPath>
</defs>
</svg>
