<svg width="58" height="58" viewBox="0 0 58 58" fill="none" xmlns="http://www.w3.org/2000/svg">
<g clip-path="url(#clip0_391_343)">
<path d="M26.0363 0.712872C26.9939 1.37737 27.644 2.24255 28.0167 3.34861C28.0167 3.49595 28.0167 3.64329 28.0167 3.7951C28.1462 3.79276 28.2757 3.79042 28.4092 3.78801C28.8901 3.77993 29.3711 3.7748 29.852 3.77057C30.0601 3.76833 30.2682 3.76528 30.4763 3.76141C30.7756 3.75599 31.0747 3.75346 31.374 3.75149C31.4669 3.74919 31.5599 3.74689 31.6556 3.74451C32.3031 3.74426 32.3031 3.74426 32.6484 4.00711C32.9264 4.39516 32.9405 4.61809 32.935 5.09269C32.934 5.20464 32.933 5.31658 32.9319 5.43192C32.93 5.56098 32.93 5.56098 32.928 5.69266C33.0775 5.69117 33.0775 5.69117 33.2301 5.68965C34.1695 5.68071 35.109 5.67391 36.0484 5.66952C36.5314 5.66719 37.0144 5.66403 37.4974 5.65897C37.9635 5.65412 38.4295 5.65145 38.8956 5.65029C39.0735 5.64947 39.2513 5.64786 39.4291 5.64545C39.6782 5.64221 39.9272 5.64176 40.1763 5.64197C40.3181 5.64098 40.4598 5.63999 40.6059 5.63896C41.0298 5.70239 41.1571 5.80068 41.4112 6.13914C41.5183 6.46031 41.5367 6.65948 41.5366 6.99285C41.5368 7.10006 41.537 7.20726 41.5372 7.31771C41.5369 7.43574 41.5366 7.55376 41.5362 7.67536C41.5364 7.86313 41.5364 7.86313 41.5365 8.05469C41.5367 8.47631 41.5361 8.89793 41.5355 9.31955C41.5354 9.62092 41.5355 9.92229 41.5355 10.2237C41.5356 10.8736 41.5353 11.5235 41.5346 12.1735C41.5337 13.1132 41.5334 14.0529 41.5333 14.9926C41.533 16.5171 41.5323 18.0417 41.5312 19.5662C41.5302 21.0474 41.5294 22.5285 41.529 24.0096C41.5289 24.1465 41.5289 24.1465 41.5289 24.2862C41.5287 24.744 41.5286 25.2019 41.5284 25.6597C41.5273 29.4592 41.5253 33.2587 41.5228 37.0582C41.6244 37.0909 41.7259 37.1235 41.8305 37.1572C42.1099 37.253 42.3634 37.3526 42.6268 37.4832C42.7061 37.5224 42.7854 37.5615 42.8672 37.6018C42.9519 37.6441 43.0367 37.6864 43.124 37.73C43.215 37.7751 43.306 37.8201 43.3998 37.8665C43.6992 38.0149 43.9982 38.1639 44.2972 38.313C44.5057 38.4168 44.7141 38.5205 44.9226 38.6242C45.3588 38.8414 45.7947 39.0589 46.2306 39.2767C46.7893 39.5558 47.3488 39.8334 47.9084 40.1107C48.3388 40.3242 48.7688 40.5388 49.1985 40.7536C49.4046 40.8564 49.6109 40.9588 49.8174 41.0609C50.1057 41.2036 50.3932 41.3476 50.6806 41.492C50.7661 41.5339 50.8515 41.5758 50.9395 41.6189C51.5032 41.9047 51.8088 42.1317 52.0152 42.7509C52.0257 42.9337 52.0298 43.117 52.0301 43.3001C52.0306 43.4134 52.0311 43.5267 52.0316 43.6434C52.0315 43.7677 52.0315 43.8919 52.0314 44.0198C52.032 44.2162 52.032 44.2162 52.0326 44.4165C52.0334 44.7755 52.0338 45.1346 52.0339 45.4937C52.034 45.7181 52.0342 45.9425 52.0345 46.1669C52.0355 46.9499 52.036 47.7329 52.0359 48.5159C52.0358 49.2455 52.037 49.9751 52.0388 50.7047C52.0402 51.3313 52.0408 51.9579 52.0408 52.5845C52.0407 52.9587 52.041 53.3328 52.0422 53.707C52.0433 54.1244 52.043 54.5417 52.0423 54.9591C52.0429 55.0829 52.0436 55.2067 52.0442 55.3342C52.0435 55.5051 52.0435 55.5051 52.0428 55.6794C52.0429 55.7781 52.0429 55.8767 52.043 55.9783C52.0033 56.3769 51.8827 56.6949 51.6415 57.0144C51.3378 57.2377 51.0586 57.2021 50.6936 57.1897C50.4525 57.15 50.4525 57.15 50.1735 56.9546C49.9159 56.5683 49.8806 56.2203 49.8767 55.7626C49.8751 55.6152 49.8751 55.6152 49.8734 55.4648C49.8728 55.3578 49.8722 55.2509 49.8715 55.1407C49.8704 55.0274 49.8693 54.9141 49.8681 54.7974C49.8646 54.4229 49.8619 54.0485 49.8591 53.674C49.8568 53.4144 49.8545 53.1548 49.8521 52.8951C49.8459 52.2118 49.8404 51.5284 49.835 50.8451C49.8294 50.1477 49.8232 49.4504 49.817 48.7531C49.805 47.3849 49.7937 46.0167 49.7828 44.6484C48.5672 45.2562 48.5672 45.2562 47.3271 45.8762C47.3255 46.0796 47.3239 46.2829 47.3222 46.4924C47.3164 47.1652 47.3091 47.8379 47.3008 48.5106C47.2958 48.9184 47.2914 49.3262 47.2885 49.734C47.2855 50.1277 47.281 50.5214 47.2754 50.9151C47.2727 51.138 47.2715 51.3609 47.2705 51.5838C47.2682 51.7201 47.266 51.8563 47.2638 51.9967C47.2625 52.1165 47.2613 52.2362 47.26 52.3595C47.2092 52.7313 47.1003 52.9416 46.8806 53.2432C46.629 53.4253 46.629 53.4253 46.3317 53.5846C46.2206 53.6454 46.1095 53.7061 45.995 53.7686C45.8752 53.8324 45.7553 53.8961 45.6319 53.9618C45.3784 54.0999 45.1251 54.2383 44.8719 54.3769C44.8072 54.4121 44.7424 54.4474 44.6757 54.4837C43.9977 54.8536 43.3324 55.2442 42.6669 55.6361C42.3427 55.8254 42.0184 56.0145 41.694 56.2034C41.5185 56.3059 41.3433 56.4089 41.1686 56.5125C40.9714 56.6291 40.7728 56.7432 40.574 56.857C40.4739 56.9154 40.3738 56.9738 40.2706 57.034C39.7043 57.2456 39.3062 57.2523 38.7565 57.017C38.3884 56.8248 38.0301 56.6205 37.6719 56.4105C37.5392 56.3345 37.4065 56.2586 37.2736 56.1829C36.9325 55.9879 36.5928 55.7905 36.2535 55.5923C35.936 55.4072 35.6177 55.2238 35.2995 55.0401C34.7544 54.7243 34.2101 54.4072 33.6679 54.0864C33.4664 53.9673 33.2646 53.849 33.0623 53.7312C32.9629 53.6728 32.8635 53.6143 32.761 53.5541C32.6723 53.5023 32.5836 53.4505 32.4922 53.3972C32.1235 53.1545 31.953 52.9971 31.8118 52.5735C31.8042 52.3806 31.8023 52.1875 31.8048 51.9945C31.8058 51.8939 31.8068 51.7933 31.8079 51.6897C31.8098 51.5747 31.8098 51.5747 31.8118 51.4573C31.6115 51.4579 31.6115 51.4579 31.4072 51.4585C28.2383 51.4682 25.0695 51.4756 21.9006 51.4801C21.5107 51.4807 21.1207 51.4812 20.7308 51.4818C20.6531 51.4819 20.5755 51.4821 20.4955 51.4822C19.2381 51.4841 17.9808 51.4877 16.7234 51.4918C15.4335 51.4959 14.1435 51.4984 12.8535 51.4993C12.1289 51.4999 11.4042 51.5013 10.6796 51.5045C9.99788 51.5075 9.31619 51.5085 8.63446 51.5078C8.38396 51.5079 8.13346 51.5088 7.88296 51.5105C7.54145 51.5127 7.20005 51.5122 6.85854 51.511C6.75897 51.5123 6.6594 51.5136 6.55682 51.5149C6.10669 51.5106 5.86141 51.491 5.46609 51.2586C5.079 50.8229 5.12033 50.3915 5.11999 49.8241C5.11979 49.7495 5.1196 49.6749 5.1194 49.5981C5.11888 49.347 5.11915 49.0959 5.11942 48.8448C5.11921 48.6634 5.11896 48.482 5.11866 48.3006C5.11797 47.8013 5.11799 47.3019 5.11812 46.8026C5.11814 46.2644 5.11753 45.7262 5.117 45.1881C5.11607 44.1334 5.11576 43.0787 5.1157 42.024C5.11565 41.167 5.11542 40.3101 5.11506 39.4531C5.11408 37.0249 5.11357 34.5966 5.11365 32.1684C5.11366 32.0375 5.11366 31.9065 5.11366 31.7716C5.11367 31.6405 5.11367 31.5093 5.11368 31.3742C5.11372 29.2482 5.11266 27.1222 5.11108 24.9962C5.10948 22.8147 5.10871 20.6332 5.1088 18.4517C5.10884 17.2264 5.10853 16.001 5.10733 14.7757C5.10632 13.7326 5.10607 12.6895 5.10683 11.6464C5.1072 11.1139 5.1072 10.5815 5.10623 10.049C5.10536 9.56189 5.10551 9.07479 5.10649 8.58767C5.10666 8.41115 5.10645 8.23463 5.10583 8.05812C5.10505 7.81869 5.10564 7.57931 5.10657 7.33988C5.10654 7.20674 5.10652 7.0736 5.10649 6.93642C5.1424 6.48428 5.23274 6.1599 5.54615 5.82758C5.90296 5.64093 6.18031 5.6525 6.58226 5.65464C6.69831 5.65457 6.69831 5.65457 6.8167 5.65449C7.07159 5.65472 7.32641 5.65733 7.58129 5.65995C7.75834 5.66058 7.93538 5.66106 8.11243 5.66139C8.5778 5.66267 9.04314 5.66595 9.50851 5.66966C9.98362 5.67309 10.4587 5.67462 10.9338 5.6763C11.8656 5.67989 12.7974 5.68561 13.7292 5.69266C13.7227 5.61179 13.7162 5.53093 13.7096 5.44761C13.6632 4.45446 13.6632 4.45446 13.9453 4.05731C14.4086 3.70211 14.7259 3.70842 15.294 3.72969C15.3899 3.73064 15.4857 3.73159 15.5845 3.73257C15.8894 3.7363 16.194 3.7447 16.4988 3.75324C16.7059 3.7566 16.9131 3.75965 17.1203 3.76239C17.6272 3.76976 18.1338 3.78131 18.6405 3.7951C18.6622 3.6918 18.6622 3.6918 18.6844 3.58641C18.7136 3.45081 18.7136 3.45081 18.7433 3.31248C18.7624 3.22289 18.7815 3.1333 18.8012 3.041C19.0087 2.21049 19.6313 1.39704 20.3148 0.892948C22.1809 -0.171266 24.1245 -0.461326 26.0363 0.712872ZM21.0042 3.13932C20.6184 3.75455 20.4937 4.39891 20.4064 5.11231C20.2724 5.47143 20.1015 5.53083 19.7567 5.69266C19.4379 5.72825 19.142 5.7471 18.8232 5.74977C18.6906 5.75278 18.6906 5.75278 18.5553 5.75585C18.2744 5.76187 17.9936 5.76566 17.7127 5.76939C17.5216 5.7731 17.3305 5.77695 17.1395 5.78095C16.6725 5.79068 16.2055 5.7974 15.7384 5.80428C15.7384 6.68832 15.7384 7.57235 15.7384 8.48318C20.7479 8.48318 25.7575 8.48318 30.9188 8.48318C30.9188 7.59914 30.9188 6.7151 30.9188 5.80428C30.4934 5.79802 30.4934 5.79802 30.0594 5.79163C29.7838 5.78647 29.5082 5.78075 29.2327 5.77498C29.0416 5.77128 28.8505 5.76815 28.6594 5.76561C28.3842 5.76185 28.1091 5.75601 27.834 5.74977C27.749 5.74906 27.6639 5.74835 27.5764 5.74761C27.0761 5.73387 26.7349 5.67758 26.3424 5.35779C26.2342 5.01464 26.2342 5.01464 26.1749 4.61133C25.9861 3.58788 25.6338 2.94195 24.7797 2.34402C23.4838 1.59241 21.9062 1.96031 21.0042 3.13932ZM7.25515 7.70183C7.25515 21.4781 7.25515 35.2544 7.25515 49.4481C15.3588 49.4481 23.4625 49.4481 31.8118 49.4481C31.8118 48.2694 31.8118 47.0907 31.8118 45.8762C31.5102 45.7174 31.2086 45.5585 30.8979 45.3949C30.7456 45.3145 30.7456 45.3145 30.5903 45.2325C30.0721 44.9594 29.553 44.6884 29.0322 44.4204C28.9255 44.3652 28.8188 44.3101 28.7089 44.2533C28.5005 44.1456 28.2918 44.0385 28.0829 43.9319C27.9882 43.8829 27.8936 43.8339 27.796 43.7834C27.7119 43.7402 27.6278 43.697 27.5411 43.6525C27.3469 43.5322 27.3469 43.5322 27.2353 43.309C27.17 42.4994 27.17 42.4994 27.3935 42.214C27.812 41.8591 28.2803 41.6402 28.7706 41.398C28.8809 41.3426 28.9913 41.2872 29.1051 41.2301C29.4697 41.0474 29.835 40.866 30.2003 40.6846C30.4538 40.5579 30.7074 40.4312 30.9609 40.3044C31.4921 40.039 32.0236 39.7741 32.5553 39.5098C33.1697 39.2043 33.7837 38.8979 34.3974 38.591C34.9884 38.2955 35.5796 38.0004 36.171 37.7056C36.4224 37.5803 36.6738 37.4548 36.9251 37.3293C37.276 37.154 37.6272 36.9794 37.9784 36.805C38.0826 36.7529 38.1867 36.7007 38.294 36.647C38.3898 36.5996 38.4856 36.5522 38.5842 36.5034C38.6672 36.4621 38.7502 36.4208 38.8357 36.3782C39.0672 36.2768 39.0672 36.2768 39.5136 36.1652C39.5136 26.7723 39.5136 17.3794 39.5136 7.70183C37.3404 7.70183 35.1671 7.70183 32.928 7.70183C32.8912 8.4017 32.8543 9.10156 32.8164 9.82264C32.5931 10.2691 32.5931 10.2691 32.3699 10.3807C32.1331 10.3915 31.8959 10.3948 31.6588 10.3949C31.5481 10.3952 31.5481 10.3952 31.4352 10.3954C31.1868 10.3959 30.9384 10.3955 30.6899 10.3952C30.5123 10.3953 30.3347 10.3955 30.157 10.3958C29.6736 10.3963 29.1903 10.3961 28.7069 10.3957C28.2017 10.3955 27.6966 10.3957 27.1914 10.3959C26.3428 10.3961 25.4943 10.3958 24.6457 10.3953C23.664 10.3947 22.6822 10.3949 21.7004 10.3955C20.8585 10.396 20.0165 10.3961 19.1745 10.3958C18.6712 10.3956 18.168 10.3956 17.6647 10.396C17.1915 10.3963 16.7183 10.3961 16.2451 10.3954C16.0712 10.3953 15.8973 10.3953 15.7233 10.3955C15.4864 10.3959 15.2495 10.3955 15.0125 10.3949C14.8798 10.3949 14.747 10.3948 14.6103 10.3948C14.2873 10.3807 14.2873 10.3807 13.9524 10.2691C13.7441 9.43578 13.7743 8.55964 13.7292 7.70183C11.5927 7.70183 9.45632 7.70183 7.25515 7.70183ZM38.557 38.6959C38.4698 38.7394 38.3827 38.783 38.2929 38.8278C38.004 38.9724 37.7154 39.1175 37.4269 39.2627C37.227 39.3628 37.0271 39.4629 36.8272 39.563C36.3003 39.8269 35.7738 40.0912 35.2472 40.3557C34.7102 40.6254 34.1729 40.8946 33.6357 41.1637C32.581 41.6923 31.5266 42.2214 30.4723 42.7509C30.4723 42.8245 30.4723 42.8982 30.4723 42.9741C31.6237 43.5627 32.7763 44.1489 33.9305 44.7321C34.4664 45.003 35.0018 45.2746 35.5363 45.5482C36.0521 45.8121 36.5689 46.0739 37.0866 46.3342C37.2839 46.4339 37.4809 46.5344 37.6775 46.6357C37.9527 46.7774 38.2293 46.9162 38.5063 47.0544C38.5874 47.097 38.6685 47.1395 38.752 47.1834C39.1128 47.3601 39.339 47.4505 39.7394 47.3773C39.9039 47.2973 39.9039 47.2973 40.0718 47.2157C40.2046 47.1537 40.3375 47.0917 40.4743 47.0278C40.6253 46.9527 40.776 46.877 40.9265 46.801C41.0094 46.7596 41.0922 46.7182 41.1775 46.6755C41.4495 46.5395 41.7212 46.4028 41.9929 46.2661C42.1821 46.1712 42.3713 46.0765 42.5606 45.9817C43.0573 45.7329 43.5538 45.4836 44.0502 45.2341C44.5574 44.9794 45.0648 44.7252 45.5721 44.471C46.5667 43.9725 47.5609 43.4735 48.555 42.9741C48.555 42.9004 48.555 42.8268 48.555 42.7509C47.3948 42.1682 46.2344 41.586 45.0737 41.0044C44.5347 40.7344 43.9959 40.4642 43.4573 40.1936C42.9378 39.9327 42.4182 39.6722 41.8984 39.412C41.6997 39.3124 41.5011 39.2127 41.3026 39.1129C41.0254 38.9735 40.7479 38.8346 40.4703 38.6959C40.3876 38.6541 40.3049 38.6124 40.2197 38.5694C39.4912 38.2066 39.2563 38.3428 38.557 38.6959ZM33.821 46.8808C33.4303 49.5949 33.4303 49.5949 34.0389 52.153C34.6318 52.6992 35.3523 52.9521 36.1063 53.2071C36.7955 53.4658 37.4095 53.8536 38.0416 54.2269C38.2744 54.3588 38.5076 54.4898 38.7415 54.6198C38.8396 54.6747 38.9377 54.7296 39.0387 54.7862C39.2977 54.9298 39.2977 54.9298 39.6253 55.0292C39.9267 54.9001 39.9267 54.9001 40.2553 54.7004C40.3828 54.6272 40.5104 54.554 40.6417 54.4786C40.9214 54.3142 41.1992 54.147 41.4765 53.9787C41.6187 53.893 41.761 53.8074 41.9035 53.722C42.0101 53.658 42.0101 53.658 42.1188 53.5927C42.5684 53.3298 43.0071 53.1383 43.5037 52.9738C44.223 52.7104 44.8225 52.4892 45.2063 51.7922C45.5792 50.2241 45.3509 48.4681 45.2063 46.8808C43.7045 47.5831 43.7045 47.5831 42.2222 48.3254C42.0916 48.3926 41.9609 48.4599 41.8263 48.5292C41.6299 48.6308 41.4335 48.7325 41.2379 48.8357C41.0412 48.9391 40.8434 49.0404 40.6456 49.1416C40.4755 49.2302 40.4755 49.2302 40.3021 49.3206C39.8109 49.5038 39.3969 49.5189 38.8969 49.3567C38.8105 49.3138 38.7241 49.2708 38.6351 49.2266C38.5354 49.178 38.4357 49.1294 38.333 49.0794C38.1749 48.9995 38.1749 48.9995 38.0137 48.9179C37.9035 48.8637 37.7933 48.8095 37.6797 48.7536C37.3228 48.5775 36.9671 48.3991 36.6115 48.2203C36.3582 48.0937 36.1049 47.9671 35.8515 47.8405C35.4889 47.6593 35.1265 47.4778 34.7648 47.2949C34.6573 47.2407 34.5499 47.1865 34.4392 47.1307C34.3439 47.0824 34.2486 47.0341 34.1504 46.9843C33.956 46.8729 33.956 46.8729 33.821 46.8808Z" fill="#7E1717"/>
<path d="M13.2714 21.821C13.3608 21.8203 13.4502 21.8196 13.5423 21.8189C13.8423 21.8171 14.1421 21.8185 14.4421 21.8199C14.657 21.8193 14.8718 21.8185 15.0867 21.8176C15.6707 21.8155 16.2546 21.8163 16.8385 21.8177C17.4491 21.8189 18.0596 21.8178 18.6702 21.8171C19.6957 21.8163 20.7211 21.8174 21.7465 21.8195C22.9327 21.8219 24.1189 21.8212 25.305 21.8187C26.3228 21.8167 27.3405 21.8164 28.3582 21.8176C28.9664 21.8183 29.5745 21.8183 30.1827 21.8169C30.7544 21.8156 31.326 21.8165 31.8978 21.8191C32.1078 21.8196 32.3179 21.8195 32.5279 21.8185C32.8142 21.8173 33.1004 21.8188 33.3867 21.821C33.5119 21.8195 33.5119 21.8195 33.6397 21.818C34.0269 21.8239 34.2304 21.8483 34.5393 22.0906C34.8331 22.4826 34.8741 22.7262 34.826 23.2172C34.6251 23.5185 34.4818 23.7241 34.1563 23.8869C33.875 23.8983 33.5967 23.9029 33.3153 23.9026C33.1837 23.9031 33.1837 23.9031 33.0494 23.9036C32.7537 23.9046 32.458 23.9047 32.1622 23.9049C31.9509 23.9054 31.7395 23.906 31.5281 23.9066C30.9527 23.908 30.3773 23.9088 29.8019 23.9092C29.4426 23.9096 29.0834 23.91 28.7241 23.9105C27.6007 23.9121 26.4774 23.9131 25.354 23.9136C24.056 23.9141 22.758 23.916 21.46 23.9193C20.4575 23.9217 19.4551 23.9228 18.4526 23.9229C17.8535 23.9231 17.2544 23.9237 16.6553 23.9257C16.0917 23.9276 15.5282 23.9278 14.9646 23.9268C14.7577 23.9267 14.5508 23.9272 14.3438 23.9283C14.0615 23.9297 13.7792 23.9291 13.4969 23.9279C13.4148 23.9288 13.3328 23.9297 13.2483 23.9306C12.7564 23.9259 12.4486 23.8504 12.0553 23.552C11.8208 23.2536 11.8322 23.1008 11.846 22.7149C12.0493 21.9016 12.5006 21.8118 13.2714 21.821Z" fill="#7E1717"/>
<path d="M17.9643 15.164C18.1763 15.1628 18.1763 15.1628 18.3925 15.1616C18.55 15.1613 18.7075 15.161 18.865 15.1607C19.0302 15.16 19.1954 15.1593 19.3606 15.1585C19.8101 15.1565 20.2596 15.1554 20.7091 15.1544C20.9898 15.1539 21.2705 15.1532 21.5512 15.1525C22.4293 15.1504 23.3074 15.1488 24.1854 15.1478C25.1995 15.1467 26.2136 15.1438 27.2277 15.1393C28.0112 15.1359 28.7947 15.1343 29.5782 15.1339C30.0463 15.1336 30.5144 15.1326 30.9825 15.1298C31.4229 15.1272 31.8633 15.1268 32.3037 15.1279C32.4653 15.128 32.6269 15.1273 32.7884 15.1257C33.0092 15.1238 33.2299 15.1248 33.4506 15.126C33.5741 15.1257 33.6976 15.1255 33.8248 15.1252C34.2335 15.1934 34.4192 15.3419 34.7142 15.6269C34.8694 15.9372 34.8465 16.176 34.8258 16.5199C34.7313 16.8035 34.6652 16.9259 34.414 17.0883C34.0843 17.2178 33.8164 17.2188 33.4621 17.2202C33.3195 17.2214 33.1769 17.2225 33.03 17.2236C32.8723 17.2237 32.7146 17.2238 32.5568 17.2238C32.3905 17.2247 32.2242 17.2256 32.0579 17.2267C31.6063 17.2291 31.1548 17.2301 30.7032 17.2307C30.4211 17.2311 30.139 17.2318 29.8569 17.2326C28.8727 17.2353 27.8885 17.2367 26.9043 17.2371C25.9868 17.2375 25.0693 17.2409 24.1519 17.2456C23.3641 17.2494 22.5763 17.2512 21.7886 17.2512C21.3181 17.2513 20.8477 17.2523 20.3772 17.2555C19.9347 17.2584 19.4924 17.2586 19.0499 17.2568C18.8876 17.2566 18.7253 17.2574 18.563 17.2592C18.3413 17.2615 18.1196 17.2599 17.8979 17.2583C17.7739 17.2585 17.6499 17.2587 17.5221 17.2589C17.0823 17.1673 16.9135 16.9726 16.6316 16.6315C16.5303 16.2937 16.5798 16.1014 16.6316 15.7386C17.0299 15.2207 17.3336 15.1665 17.9643 15.164Z" fill="#7E1717"/>
<path d="M13.2978 35.1301C13.4384 35.129 13.5789 35.1278 13.7237 35.1267C13.8791 35.1266 14.0346 35.1265 14.19 35.1265C14.354 35.1256 14.5179 35.1247 14.6818 35.1237C15.1269 35.1212 15.572 35.1202 16.0172 35.1197C16.2953 35.1192 16.5735 35.1186 16.8516 35.1178C17.8222 35.115 18.7928 35.1136 19.7634 35.1132C20.6678 35.1128 21.5722 35.1094 22.4766 35.1048C23.2533 35.1009 24.0301 35.0992 24.8069 35.0991C25.2707 35.099 25.7344 35.098 26.1982 35.0948C26.6346 35.0919 27.0708 35.0917 27.5071 35.0935C27.667 35.0937 27.8269 35.0929 27.9868 35.0911C29.3451 35.0769 29.3451 35.0769 29.7861 35.4295C30.1156 35.827 30.1156 35.827 30.1026 36.1653C30.1031 36.2366 30.1035 36.308 30.104 36.3815C29.9803 36.7463 29.759 36.924 29.4678 37.1698C29.1337 37.2398 29.1337 37.2398 28.7553 37.24C28.6115 37.2414 28.4677 37.2428 28.3195 37.2442C28.161 37.243 28.0024 37.2417 27.8438 37.2403C27.6762 37.2409 27.5086 37.2417 27.341 37.2427C26.8864 37.2448 26.4319 37.2433 25.9774 37.2411C25.5016 37.2393 25.0259 37.2403 24.5501 37.2409C23.7513 37.2414 22.9525 37.2396 22.1537 37.2365C21.2301 37.2329 20.3065 37.2329 19.3828 37.2348C18.4943 37.2366 17.6057 37.2358 16.7172 37.2339C16.339 37.2332 15.9609 37.2333 15.5827 37.2341C15.1375 37.235 14.6924 37.2336 14.2472 37.2306C14.0838 37.2298 13.9203 37.2298 13.7569 37.2306C13.534 37.2316 13.311 37.2295 13.0881 37.2273C12.9008 37.2268 12.9008 37.2268 12.7099 37.2263C12.3141 37.1565 12.1847 37.0394 11.9433 36.7234C11.8245 36.2878 11.7873 36.0471 11.9642 35.6281C12.3488 35.1639 12.7118 35.1326 13.2978 35.1301Z" fill="#7E1717"/>
<path d="M17.9022 28.5056C18.046 28.5044 18.1898 28.5031 18.338 28.5018C18.4966 28.5033 18.6552 28.5048 18.8137 28.5063C18.9813 28.5059 19.149 28.5053 19.3166 28.5044C19.7711 28.5029 20.2256 28.5048 20.6802 28.5074C21.1559 28.5096 21.6317 28.509 22.1074 28.5087C22.9063 28.5087 23.705 28.5109 24.5038 28.5145C25.4275 28.5186 26.3511 28.5196 27.2747 28.5188C28.1633 28.5181 29.0518 28.5193 29.9404 28.5215C30.3185 28.5224 30.6967 28.5227 31.0748 28.5225C31.52 28.5224 31.9652 28.524 32.4104 28.5269C32.5738 28.5277 32.7372 28.5279 32.9006 28.5276C33.1236 28.5271 33.3465 28.529 33.5695 28.531C33.6943 28.5314 33.8191 28.5318 33.9477 28.5322C34.3048 28.5799 34.4577 28.6614 34.7143 28.9099C34.84 29.2439 34.8638 29.5601 34.8259 29.9144C34.5476 30.2854 34.3718 30.4379 33.9329 30.5842C33.7133 30.5948 33.4933 30.5988 33.2735 30.5991C33.1358 30.5996 32.998 30.6 32.8562 30.6005C32.7033 30.6005 32.5504 30.6004 32.3975 30.6004C32.2367 30.6007 32.0759 30.6011 31.9151 30.6015C31.4781 30.6025 31.0411 30.6028 30.604 30.6028C30.2393 30.6029 29.8745 30.6034 29.5097 30.6038C28.6491 30.6047 27.7885 30.6049 26.9279 30.6049C26.0401 30.6048 25.1522 30.606 24.2644 30.6077C23.5022 30.6092 22.74 30.6098 21.9779 30.6097C21.5226 30.6097 21.0674 30.61 20.6121 30.6112C20.1839 30.6123 19.7557 30.6123 19.3275 30.6115C19.1704 30.6113 19.0133 30.6116 18.8562 30.6123C18.6416 30.6131 18.427 30.6125 18.2124 30.6118C18.0923 30.6118 17.9723 30.6119 17.8486 30.612C17.4095 30.5743 17.0886 30.4746 16.7642 30.1726C16.5719 29.798 16.5734 29.5483 16.6316 29.1331C17.0258 28.637 17.273 28.5052 17.9022 28.5056Z" fill="#7E1717"/>
</g>
<defs>
<clipPath id="clip0_391_343">
<rect width="57.15" height="57.15" fill="white"/>
</clipPath>
</defs>
</svg>
